<?xml version="1.0" encoding="iso-8859-1"?>
<!-- Generator: Adobe Illustrator 19.0.0, SVG Export Plug-In . SVG Version: 6.00 Build 0)  -->
<svg version="1.1" id="Layer_1" xmlns="http://www.w3.org/2000/svg" xmlns:xlink="http://www.w3.org/1999/xlink" x="0px" y="0px"
	 viewBox="0 0 511.999 511.999" style="enable-background:new 0 0 511.999 511.999;" xml:space="preserve">
<g>
	<g>
		<path d="M448.629,250.263l63.37-11.02l-5.658-32.534l-57.712,10.035V74.377H327.548v151.37L60.377,184.644l-5.022,32.637
			l19.022,2.927v61.626L0,294.77l5.659,32.535l13.682-2.379v112.696H492.66V360.57h16.511v-33.022h-60.542V250.263z M74.377,404.601
			H52.362v-85.42l22.015-3.827V404.601z M107.399,225.289l155,23.845l-155,26.956V225.289z M327.548,271.322v56.226H162.436v-27.51
			L327.548,271.322z M129.414,404.6h-22.015v-94.991l22.015-3.829V404.6z M404.6,404.6H294.525v-27.518h-33.022V404.6h-99.067
			v-44.03H404.6V404.6z M415.607,316.54H360.57V107.399h55.037V316.54z M459.637,360.57v44.03h-22.015v-44.03H459.637z"/>
	</g>
</g>
<g>
</g>
<g>
</g>
<g>
</g>
<g>
</g>
<g>
</g>
<g>
</g>
<g>
</g>
<g>
</g>
<g>
</g>
<g>
</g>
<g>
</g>
<g>
</g>
<g>
</g>
<g>
</g>
<g>
</g>
</svg>
