<?xml version="1.0" encoding="utf-8"?>
<!-- Generator: Adobe Illustrator 13.0.0, SVG Export Plug-In . SVG Version: 6.00 Build 14948)  -->
<!DOCTYPE svg PUBLIC "-//W3C//DTD SVG 1.1//EN" "http://www.w3.org/Graphics/SVG/1.1/DTD/svg11.dtd">
<svg version="1.1" id="Layer_1" xmlns="http://www.w3.org/2000/svg" xmlns:xlink="http://www.w3.org/1999/xlink" x="0px" y="0px"
	 width="598.761px" height="267.26px" viewBox="0 0 598.761 267.26" enable-background="new 0 0 598.761 267.26"
	 xml:space="preserve">
<g>
	<g>
		<path fill="#0086CA" d="M39.738,39.471L39.738,39.471 M133.816,0c73.79,0.102,133.552,60.022,133.444,133.814
			c-0.099,73.793-60.026,133.547-133.816,133.446C59.65,267.153-0.104,207.23,0,133.442C0.104,59.65,60.026-0.102,133.816,0
			 M227.792,39.738L227.792,39.738 M133.799,14.448c-32.906-0.043-62.72,13.253-84.324,34.791
			c-21.601,21.542-34.984,51.32-35.022,84.221c-0.048,32.912,13.253,62.717,34.789,84.317
			c21.544,21.601,51.319,34.976,84.225,35.031c32.901,0.043,62.719-13.258,84.315-34.793c21.605-21.535,34.988-51.315,35.031-84.22
			c0.048-32.902-13.253-62.716-34.788-84.32C196.479,27.879,166.705,14.494,133.799,14.448"/>
	</g>
	<g>
		<path fill="#0086CA" d="M215.513,144.631l19.968,0.027l-0.026,16.819l-40.041-0.056l0.083-57.493l20.077,0.03L215.513,144.631z
			 M150.074,141.372L117.04,167.28l-30.13-23.76c-4.364,10.443-14.855,17.712-26.995,17.694l-25.779-0.038l0.078-57.475
			l25.779,0.037c13.548,0.018,23.28,8.601,26.93,17.787l30.217-23.679l11.175,8.809l-27.671,21.698l5.286,4.171l27.675-21.698
			l11.17,8.807l-27.671,21.699l5.291,4.169l27.706-21.688l0.03-19.947l20.059,0.026l-0.052,40.666l19.969,0.03l-0.022,16.826
			l-40.036-0.057L150.074,141.372z M70.409,132.49c0.013-7.822-5.144-12.233-12.439-12.242l-4.477-0.009l-0.03,24.458h4.355
			C64.598,144.706,70.4,141.007,70.409,132.49"/>
	</g>
	<path fill="#0086CA" d="M569.323,155.435c0,0,4.936,6.992,15.384,7.009c7.971,0.014,14.045-4.498,14.054-11.166
		c0.025-13.249-22.471-11.223-22.454-20.191c0.005-3.89,3.356-5.786,8.941-5.777c2.632,0.004,6.937,1.121,6.932,4.057v1.907
		l5.101,0.009l0.004-3.414c0.008-5.631-8.122-7.23-12.188-7.241c-8.053-0.013-14.283,3.548-14.296,10.77
		c-0.021,12.851,22.475,11.305,22.462,20.038c-0.008,4.199-4.001,6.338-8.47,6.329c-7.896-0.017-12.352-6.053-12.352-6.053
		L569.323,155.435z M535.629,137.378c1.369-8.013,7.201-12.286,13.821-12.277c5.901,0.009,11.001,4.065,11.305,12.319
		L535.629,137.378z M529.724,141.494c-0.021,12.3,9.054,20.886,20.938,20.908c9.092,0.012,14.925-5.689,14.925-5.689l-2.623-4.053
		c0,0-4.716,4.914-12.055,4.896c-8.292-0.009-15.383-5.815-15.526-15.89l30.788,0.047c0,0,0.164-1.745,0.164-2.697
		c0.019-9.917-5.71-18.42-16.798-18.438C538.773,120.562,529.745,128.4,529.724,141.494 M490.813,141.442
		c-0.021,12.382,9.054,20.886,21.021,20.902c10.291,0.018,15.726-6.477,15.726-6.477l-2.55-4.053c0,0-4.712,5.625-12.929,5.611
		c-8.456-0.013-15.704-6.14-15.687-15.977c0.017-9.682,6.967-16.098,15.582-16.082c3.352,0.004,9.166,1.6,9.161,4.934l-0.004,2.301
		l5.109,0.009l0.004-3.569c0.014-6.588-9.72-8.508-14.262-8.517C500.023,120.507,490.831,129.218,490.813,141.442 M478.111,156.5
		c-0.01,3.411,1.428,4.845,4.856,4.85l5.659,0.009l0.008-4.681l-3.346-0.005c-1.118-0.004-1.754-0.559-1.75-1.749l0.049-28.649
		c0.003-3.411-1.429-4.84-4.858-4.849l-5.663-0.009l-0.009,4.683l3.351,0.009c1.113,0,1.755,0.634,1.755,1.746L478.111,156.5z
		 M478.027,112.38l5.262,0.009l0.012-6.828l-5.264-0.008L478.027,112.38z M447.171,161.3l5.9,0.01l13.137-33.386
		c0.484-1.427,1.359-1.821,2.798-1.821l0.718,0.005l0.005-4.683l-2.07-0.005c-3.753-0.008-4.948,0.784-6.308,4.354l-9.699,24.897
		c-0.718,1.988-1.359,4.685-1.359,4.685h-0.159c0,0-0.637-2.701-1.348-4.685l-9.606-24.936c-1.356-3.575-2.547-4.369-6.378-4.374
		l-2.156-0.004l-0.005,4.683h0.715c1.438,0.004,2.233,0.398,2.788,1.831L447.171,161.3z M406.503,161.245l5.425,0.009l0.026-16.825
		c0.003-2.541,0.328-5.238,1.13-7.773c1.767-5.871,6.001-10.31,11.663-10.301c1.035,0.005,1.992,0.165,1.992,0.165l0.008-5.314
		c0,0-1.029-0.245-2.147-0.245c-6.303-0.008-10.78,4.586-12.702,10.614l-0.161-0.004c0,0,0.165-1.349,0.165-3.016l0.004-2.695
		c0.009-3.174-1.507-4.527-4.853-4.531l-5.59-0.009l-0.004,4.683l3.346,0.005c1.122,0,1.759,0.636,1.754,1.745L406.503,161.245z
		 M369.787,137.146c1.368-8.01,7.2-12.29,13.819-12.276c5.906,0.009,10.998,4.065,11.305,12.317L369.787,137.146z M363.877,141.259
		c-0.017,12.305,9.058,20.886,20.942,20.912c9.093,0.009,14.925-5.688,14.925-5.688l-2.625-4.054c0,0-4.714,4.91-12.049,4.901
		c-8.296-0.017-15.387-5.823-15.525-15.897l30.783,0.052c0,0,0.16-1.75,0.165-2.698c0.017-9.923-5.711-18.422-16.8-18.439
		C372.926,120.326,363.898,128.168,363.877,141.259 M326.702,154.144c0,0,6.287,7.945,17.773,7.968
		c10.525,0.017,16.998-7.037,17.016-15.366c0.03-18.413-27.653-15.282-27.632-28.219c0.009-4.763,4.243-8.961,11.504-8.948
		c5.183,0.009,9.807,2.479,9.798,5.808l-0.004,2.62l5.265,0.008l0.004-3.968c0.014-7.298-9.711-9.616-15.137-9.625
		c-10.369-0.017-17.162,6.478-17.176,14.254c-0.025,17.301,27.654,14.568,27.633,28.376c-0.009,5.954-4.962,9.915-11.102,9.898
		c-8.854-0.014-14.509-6.85-14.509-6.85L326.702,154.144z"/>
</g>
</svg>
