<svg id="bdf321f4-b989-4c83-bb10-e81edd710fb5" data-name="Layer 1" xmlns="http://www.w3.org/2000/svg" viewBox="0 0 570.04248 110.55371">
  <defs>
    <style>
      .b79ba4dc-f9e3-4333-9467-58a87b1b151f {
        fill: #1d1d1b;
      }
    </style>
  </defs>
  <title>Logo_ARTMYN-ONLY-black-vect</title>
  <path class="b79ba4dc-f9e3-4333-9467-58a87b1b151f" d="M15.48486,115.5,73.19385,6.12061h27.51269L111.61133,115.5H87.62158L86.2793,87.9873H53.73389L40.81641,115.5ZM68.66455,56.28076,61.9541,70.708H85.44043l-.6709-14.42725q-.33837-8.05224-.6709-15.937-.33837-7.88379-.67138-16.6084h-.6709q-3.523,8.55542-6.87793,16.44043Q72.52026,48.06323,68.66455,56.28076Z" transform="translate(-15.48486 -4.94629)"/>
  <path class="b79ba4dc-f9e3-4333-9467-58a87b1b151f" d="M122.51367,115.5,144.49023,6.12061h34.22315A69.61383,69.61383,0,0,1,193.644,7.63037a33.7826,33.7826,0,0,1,11.82715,4.86475,23.99532,23.99532,0,0,1,7.80078,8.72363,27.21759,27.21759,0,0,1,2.85157,12.91748,42.59928,42.59928,0,0,1-2.09668,13.84033,35.87435,35.87435,0,0,1-14.59522,18.87305,47.761,47.761,0,0,1-11.15625,5.36816L205.21924,115.5H181.062l-14.0918-40.09473H153.54932L145.66455,115.5Zm34.72656-58.38037h11.5752q12.2439,0,18.45361-5.28467,6.20435-5.28443,6.207-14.34326,0-7.04591-4.69726-10.06592-4.6985-3.019-13.58838-3.01953H163.61475Z" transform="translate(-15.48486 -4.94629)"/>
  <path class="b79ba4dc-f9e3-4333-9467-58a87b1b151f" d="M237.42822,115.5l17.78272-89.91943h-28.687l3.69091-19.46h80.52442l-3.8584,19.46h-28.687L260.41162,115.5Z" transform="translate(-15.48486 -4.94629)"/>
  <path class="b79ba4dc-f9e3-4333-9467-58a87b1b151f" d="M317.95215,115.5V4.94629h10.9043l23.15234,64.92285q2.17676,6.03955,4.36133,12.1626,2.17676,6.126,4.36133,12.33056h.67187q2.17675-6.20434,4.19336-12.33056,2.0127-6.12159,4.19336-12.1626L392.77441,4.94629h11.07227V115.5H396.2959V42.85986q0-6.8767.33594-14.84668.334-7.96581.67187-15.01464h-.67187l-8.55469,24.66064-23.82227,65.76221H357.544L333.55371,37.65918l-8.72266-24.66064h-.67187q.33691,7.04589.67187,15.01464.334,7.97022.33594,14.84668V115.5Z" transform="translate(-15.48486 -4.94629)"/>
  <path class="b79ba4dc-f9e3-4333-9467-58a87b1b151f" d="M453.669,115.5V70.708L420.62012,4.94629h8.2207l16.77637,34.55859q2.85059,6.03882,5.61914,11.91065,2.76855,5.87475,6.124,11.91113h.6709q3.18457-6.03955,6.207-11.91113,3.01905-5.87037,5.7041-11.91065L486.71777,4.94629h7.88477L461.38574,70.708V115.5Z" transform="translate(-15.48486 -4.94629)"/>
  <path class="b79ba4dc-f9e3-4333-9467-58a87b1b151f" d="M511.377,115.5V4.94629h8.05274l46.63769,78.0083,12.41407,21.97656h.67089q-.33837-8.05224-.67089-16.105-.33839-8.05224-.33594-16.105V4.94629h7.38183V115.5h-8.05273l-46.6377-78.0083L518.42285,15.51514h-.6709q.334,8.05224.6709,15.68554.334,7.63551.33594,15.68555V115.5Z" transform="translate(-15.48486 -4.94629)"/>
</svg>
