<?xml version="1.0" encoding="utf-8"?>
<!-- Generator: Adobe Illustrator 23.0.1, SVG Export Plug-In . SVG Version: 6.00 Build 0)  -->
<svg version="1.1" id="Layer_1" xmlns="http://www.w3.org/2000/svg" xmlns:xlink="http://www.w3.org/1999/xlink" x="0px" y="0px"
	 viewBox="0 0 506.6 81" style="enable-background:new 0 0 506.6 81;" xml:space="preserve">
<style type="text/css">
	.st0{fill:#0086CA;}
</style>
<g>
	<g>
		<path class="st0" d="M181.4,51.6l20,0l0,16.8l-40-0.1l0.1-57.5l20.1,0L181.4,51.6z M115.9,48.4l-33,25.9L52.8,50.5
			c-4.4,10.4-14.9,17.7-27,17.7L0,68.2l0.1-57.5l25.8,0c13.5,0,23.3,8.6,26.9,17.8L83,4.8l11.2,8.8L66.5,35.4l5.3,4.2l27.7-21.7
			l11.2,8.8L83,48.3l5.3,4.2L116,30.8l0-19.9l20.1,0L136,51.6l20,0l0,16.8l-40-0.1L115.9,48.4z M36.3,39.5c0-7.8-5.1-12.2-12.4-12.2
			l-4.5,0l0,24.5h4.4C30.5,51.7,36.3,48,36.3,39.5"/>
	</g>
	<path class="st0" d="M477.2,62.4c0,0,4.9,7,15.4,7c8,0,14-4.5,14.1-11.2c0-13.2-22.5-11.2-22.5-20.2c0-3.9,3.4-5.8,8.9-5.8
		c2.6,0,6.9,1.1,6.9,4.1v1.9l5.1,0l0-3.4c0-5.6-8.1-7.2-12.2-7.2c-8.1,0-14.3,3.5-14.3,10.8c0,12.9,22.5,11.3,22.5,20
		c0,4.2-4,6.3-8.5,6.3c-7.9,0-12.4-6.1-12.4-6.1L477.2,62.4z M443.5,44.4c1.4-8,7.2-12.3,13.8-12.3c5.9,0,11,4.1,11.3,12.3
		L443.5,44.4z M437.6,48.5c0,12.3,9.1,20.9,20.9,20.9c9.1,0,14.9-5.7,14.9-5.7l-2.6-4.1c0,0-4.7,4.9-12.1,4.9
		c-8.3,0-15.4-5.8-15.5-15.9l30.8,0c0,0,0.2-1.7,0.2-2.7c0-9.9-5.7-18.4-16.8-18.4C446.6,27.6,437.6,35.4,437.6,48.5 M398.7,48.4
		c0,12.4,9.1,20.9,21,20.9c10.3,0,15.7-6.5,15.7-6.5l-2.5-4.1c0,0-4.7,5.6-12.9,5.6c-8.5,0-15.7-6.1-15.7-16c0-9.7,7-16.1,15.6-16.1
		c3.4,0,9.2,1.6,9.2,4.9l0,2.3l5.1,0l0-3.6c0-6.6-9.7-8.5-14.3-8.5C407.9,27.5,398.7,36.2,398.7,48.4 M386,63.5
		c0,3.4,1.4,4.8,4.9,4.9l5.7,0l0-4.7l-3.3,0c-1.1,0-1.8-0.6-1.8-1.7l0-28.6c0-3.4-1.4-4.8-4.9-4.8l-5.7,0l0,4.7l3.4,0
		c1.1,0,1.8,0.6,1.8,1.7L386,63.5z M385.9,19.4l5.3,0l0-6.8l-5.3,0L385.9,19.4z M355,68.3l5.9,0l13.1-33.4c0.5-1.4,1.4-1.8,2.8-1.8
		l0.7,0l0-4.7l-2.1,0c-3.8,0-4.9,0.8-6.3,4.4l-9.7,24.9c-0.7,2-1.4,4.7-1.4,4.7H358c0,0-0.6-2.7-1.3-4.7L347,32.7
		c-1.4-3.6-2.5-4.4-6.4-4.4l-2.2,0l0,4.7h0.7c1.4,0,2.2,0.4,2.8,1.8L355,68.3z M314.4,68.2l5.4,0l0-16.8c0-2.5,0.3-5.2,1.1-7.8
		c1.8-5.9,6-10.3,11.7-10.3c1,0,2,0.2,2,0.2l0-5.3c0,0-1-0.2-2.1-0.2c-6.3,0-10.8,4.6-12.7,10.6l-0.2,0c0,0,0.2-1.3,0.2-3l0-2.7
		c0-3.2-1.5-4.5-4.9-4.5l-5.6,0l0,4.7l3.3,0c1.1,0,1.8,0.6,1.8,1.7L314.4,68.2z M277.7,44.1c1.4-8,7.2-12.3,13.8-12.3
		c5.9,0,11,4.1,11.3,12.3L277.7,44.1z M271.7,48.3c0,12.3,9.1,20.9,20.9,20.9c9.1,0,14.9-5.7,14.9-5.7l-2.6-4.1c0,0-4.7,4.9-12,4.9
		c-8.3,0-15.4-5.8-15.5-15.9l30.8,0.1c0,0,0.2-1.8,0.2-2.7c0-9.9-5.7-18.4-16.8-18.4C280.8,27.3,271.8,35.2,271.7,48.3 M234.6,61.1
		c0,0,6.3,7.9,17.8,8c10.5,0,17-7,17-15.4c0-18.4-27.7-15.3-27.6-28.2c0-4.8,4.2-9,11.5-8.9c5.2,0,9.8,2.5,9.8,5.8l0,2.6l5.3,0l0-4
		c0-7.3-9.7-9.6-15.1-9.6c-10.4,0-17.2,6.5-17.2,14.3c0,17.3,27.7,14.6,27.6,28.4c0,6-5,9.9-11.1,9.9c-8.9,0-14.5-6.9-14.5-6.9
		L234.6,61.1z"/>
</g>
</svg>
